<svg width="32" height="32" viewBox="0 0 32 32" fill="none" xmlns="http://www.w3.org/2000/svg">
<rect x="26.6667" y="26.6667" width="5.33333" height="5.33333" fill="#D9D9D9"/>
<rect x="21.3333" y="26.6667" width="5.33333" height="5.33333" fill="#E0E0E0"/>
<rect x="16" y="26.6667" width="5.33333" height="5.33333" fill="#EBEBEB"/>
<rect x="10.6667" y="26.6667" width="5.33333" height="5.33333" fill="#F2F2F2"/>
<rect x="5.33325" y="26.6667" width="5.33333" height="5.33333" fill="#FAFAFA"/>
<rect y="26.6667" width="5.33333" height="5.33333" fill="white"/>
<rect x="26.6667" y="21.3333" width="5.33333" height="5.33333" fill="#E0E0E0"/>
<rect x="21.3333" y="21.3333" width="5.33333" height="5.33333" fill="#E0E0E0"/>
<rect x="16" y="21.3333" width="5.33333" height="5.33333" fill="#EBEBEB"/>
<rect x="10.6667" y="21.3333" width="5.33333" height="5.33333" fill="#F2F2F2"/>
<rect x="5.33325" y="21.3333" width="5.33333" height="5.33333" fill="#FAFAFA"/>
<rect y="21.3333" width="5.33333" height="5.33333" fill="white"/>
<rect x="26.6667" y="16" width="5.33333" height="5.33333" fill="#EBEBEB"/>
<rect x="21.3333" y="16" width="5.33333" height="5.33333" fill="#EBEBEB"/>
<rect x="16" y="16" width="5.33333" height="5.33333" fill="#EBEBEB"/>
<rect x="10.6667" y="16" width="5.33333" height="5.33333" fill="#F2F2F2"/>
<rect x="5.33325" y="16" width="5.33333" height="5.33333" fill="#FAFAFA"/>
<rect y="16" width="5.33333" height="5.33333" fill="white"/>
<rect x="26.6667" y="10.6667" width="5.33333" height="5.33333" fill="#F2F2F2"/>
<rect x="21.3333" y="10.6667" width="5.33333" height="5.33333" fill="#F2F2F2"/>
<rect x="16" y="10.6667" width="5.33333" height="5.33333" fill="#F2F2F2"/>
<rect x="10.6667" y="10.6667" width="5.33333" height="5.33333" fill="#F2F2F2"/>
<rect x="5.33325" y="10.6667" width="5.33333" height="5.33333" fill="#FAFAFA"/>
<rect y="10.6667" width="5.33333" height="5.33333" fill="white"/>
<rect x="10.6667" y="5.33325" width="5.33333" height="5.33333" fill="#FAFAFA"/>
<rect x="5.33325" y="5.33325" width="5.33333" height="5.33333" fill="#FAFAFA"/>
<rect y="5.33325" width="5.33333" height="5.33333" fill="white"/>
<rect x="10.6667" width="5.33333" height="5.33333" fill="white"/>
<rect x="5.33325" width="5.33333" height="5.33333" fill="white"/>
<rect width="5.33333" height="5.33333" fill="white"/>
</svg>
