<svg width="48" height="48" viewBox="0 0 48 48" fill="none" xmlns="http://www.w3.org/2000/svg">
<rect x="40" y="40" width="8" height="8" fill="#8E106B"/>
<rect x="32" y="40" width="8" height="8" fill="#A01279"/>
<rect x="24" y="40" width="8" height="8" fill="#AE1483"/>
<rect x="16" y="40" width="8" height="8" fill="#BC158E"/>
<rect x="8" y="40" width="8" height="8" fill="#CA1798"/>
<rect y="40" width="8" height="8" fill="#D718A2"/>
<rect x="40" y="32" width="8" height="8" fill="#A01279"/>
<rect x="32" y="32" width="8" height="8" fill="#A01279"/>
<rect x="24" y="32" width="8" height="8" fill="#AE1483"/>
<rect x="16" y="32" width="8" height="8" fill="#BC158E"/>
<rect x="8" y="32" width="8" height="8" fill="#CA1798"/>
<rect y="32" width="8" height="8" fill="#D718A2"/>
<rect x="40" y="24" width="8" height="8" fill="#AE1483"/>
<rect x="32" y="24" width="8" height="8" fill="#AE1483"/>
<rect x="24" y="24" width="8" height="8" fill="#AE1483"/>
<rect x="16" y="24" width="8" height="8" fill="#BC158E"/>
<rect x="8" y="24" width="8" height="8" fill="#CA1798"/>
<rect y="24" width="8" height="8" fill="#D718A2"/>
<rect x="40" y="16" width="8" height="8" fill="#BC158E"/>
<rect x="32" y="16" width="8" height="8" fill="#BC158E"/>
<rect x="24" y="16" width="8" height="8" fill="#BC158E"/>
<rect x="16" y="16" width="8" height="8" fill="#BC158E"/>
<rect x="8" y="16" width="8" height="8" fill="#CA1798"/>
<rect y="16" width="8" height="8" fill="#D718A2"/>
<rect x="16" y="8" width="8" height="8" fill="#CA1798"/>
<rect x="8" y="8" width="8" height="8" fill="#CA1798"/>
<rect y="8" width="8" height="8" fill="#D718A2"/>
<rect x="16" width="8" height="8" fill="#D718A2"/>
<rect x="8" width="8" height="8" fill="#D718A2"/>
<rect width="8" height="8" fill="#D718A2"/>
</svg>
